<svg class="w-10 h-10" viewBox="0 0 70 70" fill="none" xmlns="http://www.w3.org/2000/svg">
<path d="M40.7998 69.2998C56.5399 69.2998 69.2998 56.5399 69.2998 40.7998C69.2998 25.0597 56.5399 12.2998 40.7998 12.2998C25.0597 12.2998 12.2998 25.0597 12.2998 40.7998C12.2998 56.5399 25.0597 69.2998 40.7998 69.2998Z" fill="currentColor"></path>
<path d="M40.7998 69.2998C56.5399 69.2998 69.2998 56.5399 69.2998 40.7998C69.2998 25.0597 56.5399 12.2998 40.7998 12.2998C25.0597 12.2998 12.2998 25.0597 12.2998 40.7998C12.2998 56.5399 25.0597 69.2998 40.7998 69.2998Z" fill="currentColor" fill-opacity="0.2"></path>
<path d="M30.5 59C46.2401 59 59 46.2401 59 30.5C59 14.7599 46.2401 2 30.5 2C14.7599 2 2 14.7599 2 30.5C2 46.2401 14.7599 59 30.5 59Z" stroke="#000000" stroke-width="3" stroke-miterlimit="10" stroke-linecap="round" stroke-linejoin="round"></path>
<path d="M30.5002 44.3002C38.1217 44.3002 44.3002 38.1217 44.3002 30.5002C44.3002 22.8787 38.1217 16.7002 30.5002 16.7002C22.8787 16.7002 16.7002 22.8787 16.7002 30.5002C16.7002 38.1217 22.8787 44.3002 30.5002 44.3002Z" stroke="currentColor" stroke-width="3" stroke-miterlimit="10" stroke-linecap="round" stroke-linejoin="round"></path>
<path d="M30.5002 44.3002C38.1217 44.3002 44.3002 38.1217 44.3002 30.5002C44.3002 22.8787 38.1217 16.7002 30.5002 16.7002C22.8787 16.7002 16.7002 22.8787 16.7002 30.5002C16.7002 38.1217 22.8787 44.3002 30.5002 44.3002Z" stroke="currentColor" stroke-opacity="0.2" stroke-width="3" stroke-miterlimit="10" stroke-linecap="round" stroke-linejoin="round"></path>
</svg>
