<svg width="200" height="200" viewBox="0 0 200 200" fill="none" xmlns="http://www.w3.org/2000/svg" id="Scribble-24.svg">
<path fill-rule="evenodd" clip-rule="evenodd" d="M86.8438 30.6795C118.54 34.6472 168.29 64.646 163.679 101.49C159.064 138.333 136.898 121.006 105.202 117.036C73.5034 113.068 8.11988 163.774 12.7318 126.931C17.3463 90.0898 55.1453 26.7091 86.8438 30.6795Z" fill="black"/>
<path fill-rule="evenodd" clip-rule="evenodd" d="M21.1653 127.987C23.256 111.297 33.163 87.534 46.5907 68.3804ZM46.5907 68.3804C53.2596 58.8678 60.4907 50.9401 67.5872 45.7019ZM67.5872 45.7019C74.7772 40.3947 80.9038 38.5022 85.7868 39.1138ZM87.899 22.2456C76.933 20.8722 66.4479 25.4133 57.4914 32.0245C48.4411 38.7048 39.9907 48.1803 32.6707 58.6217C18.1209 79.3758 6.82117 105.723 4.29707 125.874L4.29698 125.875C3.61705 131.307 3.94571 136.968 6.97264 141.583C10.2763 146.62 15.449 148.462 20.0827 148.842C24.5079 149.204 29.2898 148.351 33.7803 147.162C38.3865 145.942 43.3705 144.177 48.3963 142.247C52.286 140.754 56.1461 139.19 59.9958 137.63C66.4953 134.997 72.9652 132.375 79.4985 130.126C89.9415 126.531 98.3326 124.743 104.145 125.47M87.8996 22.2456C105.442 24.4418 127.245 33.6279 144.171 47.1072C160.921 60.4459 174.963 79.7695 172.112 102.546L172.112 102.546C170.881 112.376 168.319 120.34 163.3 125.782C157.87 131.672 150.928 133.21 144.407 133.066C138.263 132.93 131.423 131.272 125.052 129.722C124.803 129.661 124.554 129.601 124.304 129.54C117.84 127.967 111.229 126.357 104.146 125.47M133.581 60.4055C118.86 48.6827 99.9403 40.8856 85.7874 39.1139L85.7868 39.1138M133.581 60.4055C148.478 72.2688 157.004 86.3662 155.244 100.433ZM155.244 100.434C154.168 109.025 152.228 112.712 150.802 114.259C149.788 115.359 148.342 116.149 144.783 116.07C140.847 115.983 135.914 114.868 129.07 113.204C128.75 113.126 128.428 113.047 128.102 112.968C121.79 111.43 114.332 109.613 106.258 108.602L106.257 108.602C96.2201 107.345 84.5517 110.407 73.9646 114.052C67.0895 116.419 59.741 119.391 52.8978 122.159C49.1628 123.669 45.5783 125.119 42.3034 126.376C37.4634 128.235 33.1489 129.743 29.4289 130.728C25.5933 131.744 23.0214 132.026 21.4701 131.899C21.3302 131.887 21.211 131.874 21.1104 131.86C21.0043 131.28 20.9016 130.094 21.1653 127.987M20.6387 131.758C20.6397 131.758 20.6536 131.762 20.6774 131.774C20.6495 131.765 20.6377 131.759 20.6387 131.758Z" fill="currentColor"/>
<path fill-rule="evenodd" clip-rule="evenodd" d="M157.304 65.2837C137.609 61.5895 111.096 65.6814 84.9025 78.5902C75.8301 83.0618 69.2011 86.4368 64.2651 89.6073C59.369 92.7521 56.3954 95.5392 54.4549 98.7136C52.5135 101.889 51.4094 105.774 50.8253 111.471C50.236 117.218 50.2012 124.481 50.2012 134.325C50.2012 143.692 51.9696 150.425 54.9403 155.337C57.8839 160.205 62.1905 163.587 67.8477 165.955C79.4745 170.821 96.1187 171.176 116.431 171.176C135.407 171.176 153.559 162.145 167.021 148.253C180.488 134.356 189 115.862 189 97.3353C189 88.4574 185.873 81.4611 180.504 76.1975C175.07 70.8697 167.136 67.1279 157.304 65.2837ZM185.405 71.1991C192.158 77.8207 196 86.637 196 97.3353C196 117.963 186.569 138.14 172.048 153.125C157.522 168.114 137.639 178.176 116.431 178.176C96.558 178.176 78.3371 177.933 65.1453 172.412C58.3932 169.587 52.8022 165.329 48.9504 158.96C45.1258 152.635 43.2012 144.536 43.2012 134.325C43.2012 124.592 43.2283 116.935 43.8618 110.757C44.5005 104.528 45.7801 99.4832 48.4824 95.0626C51.1856 90.6406 55.1156 87.1646 60.4821 83.7176C65.8085 80.2963 72.8009 76.7508 81.8079 72.3113L81.8081 72.3113C109.006 58.9074 137.065 54.3655 158.595 58.4037C169.375 60.4257 178.716 64.6417 185.405 71.1991Z" fill="black"/>
</svg>
