<svg width="200" height="200" viewBox="0 0 200 200" fill="none" xmlns="http://www.w3.org/2000/svg" id="Scribble-50.svg"><path d="M92.2553 130.236C98.0731 127.199 104.635 122.87 110.686 117.721C116.73 112.562 122.267 106.611 125.916 100.132C127.733 96.8881 129.081 93.4932 129.672 89.9472C130.265 86.4201 130.063 82.7231 128.781 79.1866C127.508 75.6406 125.185 72.3305 121.882 69.4164C118.574 66.4929 114.294 63.928 108.914 61.6834C99.3812 57.6942 89.659 56.9489 80.4517 58.5899C71.2331 60.2308 62.5172 64.1916 54.5887 69.52C38.7403 80.1957 25.9125 96.2755 18.3273 111.61C11.1798 126.086 9.49166 138.912 12.4105 149.795C15.3086 160.687 22.6976 169.09 32.035 175.06C41.4026 181.067 52.812 184.858 64.7193 186.914C76.6313 188.97 89.0526 189.272 100.504 188.037C116.992 186.236 134.053 180.426 148.647 170.863C163.213 161.319 175.381 147.899 181.38 130.877C186.756 115.646 187.414 101.717 184.185 89.5701C180.974 77.4138 173.939 67.2287 164.734 59.2502C155.516 51.2529 144.138 45.3588 131.819 41.4073C119.496 37.4558 106.214 35.4372 93.0701 35.3523C79.9264 35.2674 66.9175 37.0972 55.1328 40.9827C43.3585 44.8776 32.7583 50.8282 24.6875 59.1839C16.6176 67.5019 11.2156 78.3756 10.1942 91.1072C9.14457 103.848 12.3228 118.24 20.3795 134.168C30.4007 154.03 45.5946 167.77 62.6982 175.673C79.8113 183.585 98.7625 185.783 116.697 183.114C134.632 180.436 151.627 172.9 164.838 161.027C178.04 149.182 187.39 132.829 189.521 113.26C190.778 101.934 189.598 89.57 185.541 76.5084C181.071 62.1264 175.34 50.338 168.61 40.926C161.885 31.5236 154.135 24.4974 145.752 19.7538C137.374 15.0006 128.396 12.5582 119.349 12.0866C110.294 11.6151 101.172 13.0863 92.2835 16.057C74.5046 22.0172 57.5887 33.9565 43.4727 49.2061C29.3642 64.4651 18.0746 83.0722 11.7645 102.481C11.4636 103.414 13.064 103.99 13.4252 103.084C20.8803 84.3927 33.0941 67.0302 47.5505 53.2142C61.9985 39.3981 78.7079 29.1848 94.9383 24.6957C103.054 22.4418 111.033 21.6116 118.591 22.3661C126.155 23.1206 133.302 25.4312 139.973 29.5525C146.641 33.6832 152.868 39.6623 158.461 47.9803C164.051 56.2888 168.981 66.955 172.93 80.3373C176.348 91.9277 177.228 102.405 176.203 111.798C174.401 127.972 166.913 141.119 155.891 151.087C144.879 161.027 130.265 167.619 114.725 169.958C99.184 172.306 82.7952 170.411 68.2218 163.705C53.6409 156.981 40.8038 145.551 31.969 128.283C24.6441 113.93 22.2204 101.934 22.989 92.1447C23.7849 82.3461 27.6186 74.5373 33.8429 67.9829C40.0653 61.4568 48.8171 56.3267 59.09 52.8844C69.3517 49.4328 81.0864 47.6787 93.021 47.6975C104.955 47.7069 117.086 49.48 128.148 52.96C139.217 56.4305 149.197 61.608 156.951 68.2661C164.718 74.9337 170.266 82.9874 172.89 92.5973C175.495 102.207 175.238 113.581 170.588 127.123C165.709 141.317 155.475 153.011 142.541 161.631C129.634 170.251 114.097 175.692 99.3104 177.399C88.8838 178.615 77.3405 178.436 66.4526 176.645C55.561 174.862 45.3352 171.457 37.4879 166.497C29.6103 161.508 24.2037 155.199 21.979 147.201C19.775 139.204 20.636 128.981 26.9641 115.825C33.6609 101.887 45.6021 86.7218 59.72 77.0835C66.7751 72.255 74.3424 68.7938 82.0455 67.3603C89.7608 65.9363 97.5987 66.4554 105.604 69.6996C110.342 71.6329 113.813 73.7355 116.237 75.848C118.666 77.9605 120.055 80.0354 120.824 82.0913C121.582 84.1472 121.751 86.2599 121.389 88.6081C121.025 90.9375 120.093 93.4838 118.654 96.0961C115.79 101.34 110.906 106.8 105.4 111.563C99.8998 116.344 93.7812 120.456 88.5688 123.219C86.8627 124.134 86.8844 126.652 87.6785 128.17C88.4725 129.679 90.5426 131.122 92.2553 130.236Z" fill="currentColor"/></svg>
