<svg class="w-10 h-10" viewBox="0 0 69 90" fill="none" xmlns="http://www.w3.org/2000/svg">
    <path d="M0.563538 86.4441C9.62047 89.2172 16.6734 91.0373 25.3582 87.062C32.131 83.9619 38.9967 80.1472 44.485 75.0561C50.4537 69.5194 57.9022 61.3399 53.1364 53.1378C49.3227 46.5744 43.2597 40.2549 43.2597 32.3089C43.2597 23.5235 48.7541 18.3068 54.9775 12.9941C58.6952 9.82034 63.0893 5.84965 65.693 1.65486C66.8291 -0.175672 57.9801 2.37935 56.7613 2.69535C56.4809 2.76805 57.7534 3.40302 58.0609 3.80379C59.7892 6.05612 60.7498 8.83608 62.4864 11.1169C66.0039 15.7368 66.9283 3.54324 68.4493 1.40005" stroke="currentColor" stroke-width="2" stroke-linecap="round"></path>
</svg>
