<svg width="200" height="200" viewBox="0 0 200 200" fill="none" xmlns="http://www.w3.org/2000/svg" id="Scribble-45.svg">
<path d="M32.429 104.859C30.3804 101.333 28.3106 94.7025 26.9529 87.1059C25.5895 79.505 24.922 70.9166 25.5721 63.4456C25.8948 59.7123 26.5488 56.2606 27.5748 53.3804C28.5982 50.4916 29.9911 48.2004 31.7061 46.6716C33.4325 45.1471 35.4408 44.3026 38.1386 44.2506C40.8307 44.2073 44.2444 45.0474 48.4451 47.1523C48.6235 47.2389 49.1107 47.5637 49.6833 48.0445C50.2637 48.5252 50.9588 49.1663 51.7063 49.9199C54.7177 52.9342 58.5628 57.7938 60.4 61.8433C60.8612 62.8481 61.1964 63.7921 61.3792 64.6106C61.5646 65.4249 61.5901 66.1049 61.5096 66.5727C61.4234 67.0534 61.2826 67.3133 61.0392 67.5732C60.7906 67.8244 60.3627 68.1059 59.5403 68.3224C58.0097 68.7252 57.0872 68.6126 56.6433 68.4307C56.4115 68.3354 56.266 68.227 56.1196 68.0754C55.9759 67.9195 55.8325 67.703 55.703 67.3782C55.4401 66.7415 55.2824 65.676 55.3439 64.3594C55.399 63.0428 55.6532 61.4836 56.0646 59.8465C56.8845 56.5636 58.3311 52.9515 59.8768 50.0108C60.6481 48.5426 61.4451 47.239 62.1727 46.2385C62.8877 45.238 63.5807 44.545 63.8864 44.3545C67.4167 41.9334 70.635 40.4566 73.5442 39.6684C76.4559 38.8845 79.0602 38.7805 81.4422 39.1357C86.1864 39.846 90.1753 42.4574 93.4062 45.736C96.6328 48.9973 99.0235 52.8867 100.474 55.7625C101.202 57.1961 101.696 58.3914 101.938 59.067C101.999 59.2359 102.042 59.3702 102.064 59.4525C102.09 59.5305 102.094 59.578 102.073 59.4568C102.064 59.3831 102.034 59.2922 102.047 58.9414C102.064 58.7552 102.064 58.4952 102.293 57.9885C102.41 57.7416 102.61 57.4169 102.969 57.1094C103.324 56.8019 103.857 56.5637 104.346 56.5118C104.84 56.4554 105.243 56.5463 105.524 56.6416C105.806 56.7412 105.992 56.8538 106.131 56.9491C106.399 57.1353 106.508 57.261 106.59 57.3519C106.746 57.5295 106.776 57.5945 106.802 57.6292C106.828 57.6552 106.928 57.8803 106.919 58.1272C106.919 58.3697 106.828 58.556 106.815 58.569C106.815 58.569 106.819 58.5646 106.819 58.5603C106.828 58.5516 106.841 58.5386 106.863 58.517C106.902 58.4736 106.967 58.4087 107.062 58.3351C107.244 58.1792 107.534 57.9843 107.902 57.7764C109.392 56.9188 112.099 55.9834 114.975 55.2298C117.863 54.4675 120.964 53.8394 123.455 53.402C124.698 53.1811 125.794 53.0079 126.634 52.8866C127.054 52.826 127.409 52.7783 127.682 52.7437C127.95 52.7134 128.154 52.6917 128.193 52.6917C136.586 52.094 144.044 53.4843 150.043 56.1998C156.046 58.924 160.576 62.9606 163.252 67.6728C165.925 72.3979 166.817 77.7771 165.453 83.6153C164.075 89.4448 160.364 95.7809 153.49 102.048C152.953 102.537 152.629 103.187 152.533 103.863C152.434 104.538 152.572 105.244 152.919 105.833C153.261 106.427 153.811 106.894 154.448 107.137C155.084 107.388 155.807 107.423 156.513 107.189C158.688 106.474 161.516 105.677 164.513 105.114C167.51 104.547 170.684 104.222 173.504 104.391C176.332 104.547 178.74 105.218 180.377 106.357C181.2 106.929 181.863 107.609 182.404 108.488C182.946 109.367 183.366 110.472 183.6 111.927C183.756 112.94 183.708 113.989 183.457 115.123C183.205 116.254 182.746 117.462 182.084 118.709C180.771 121.208 178.671 123.85 176.211 126.362C171.286 131.408 165.007 135.908 161.022 138.749C150.225 146.445 139.705 150.984 130.376 153.565C121.051 156.147 112.909 156.766 106.949 156.588C103.97 156.502 101.536 156.212 99.8161 155.891C98.9586 155.731 98.2786 155.558 97.8368 155.419C97.616 155.35 97.4557 155.289 97.3864 155.259C97.3691 155.25 97.3561 155.246 97.3518 155.242C97.3474 155.242 97.3474 155.242 97.3474 155.242C97.3474 155.242 97.3518 155.241 97.3561 155.246C97.3734 155.254 97.4254 155.28 97.525 155.354C97.6203 155.423 97.7719 155.536 97.9884 155.787C98.192 156.034 98.5038 156.454 98.6598 157.19C98.7334 157.554 98.7464 157.992 98.6641 158.412C98.5818 158.836 98.4129 159.23 98.218 159.538C97.8109 160.157 97.3864 160.426 97.1179 160.577C96.5635 160.863 96.4206 160.829 96.3946 160.846C96.399 160.846 96.3946 160.846 96.4076 160.846C96.4163 160.846 96.4379 160.841 96.4639 160.841C96.5202 160.837 96.6025 160.837 96.7065 160.837C97.5597 160.829 99.6125 161.036 102.679 161.643C102.432 159.533 102.185 157.42 101.943 155.311C98.114 157.047 92.8085 158.325 86.7494 158.983C80.6834 159.65 73.8556 159.724 66.903 159.196C58.1418 158.533 49.1701 157.013 41.1898 154.635C33.2077 152.258 26.2317 149 21.4455 144.994C19.0479 142.993 17.1968 140.824 15.9633 138.485C14.732 136.137 14.0941 133.625 14.169 130.793C14.2482 127.965 15.0638 124.795 16.8599 121.269C18.6538 117.748 21.4269 113.88 25.3465 109.714C26.2391 108.765 24.6423 107.154 23.6864 108.038C19.3632 112.04 16.1461 115.894 13.9083 119.632C11.673 123.37 10.4162 127.012 10.0879 130.533C9.7557 134.05 10.3755 137.428 11.7731 140.512C13.169 143.6 15.3176 146.393 17.998 148.888C23.3681 153.877 30.8581 157.741 39.3023 160.582C47.7482 163.414 57.1625 165.199 66.3971 165.896C73.7261 166.446 80.9329 166.372 87.4814 165.653C94.0342 164.921 99.9244 163.566 104.701 161.405C106.027 160.807 106.828 159.356 106.642 157.97C106.503 156.575 105.39 155.35 103.961 155.077C100.622 154.432 98.3479 154.159 96.7021 154.154C96.282 154.159 95.8922 154.172 95.4764 154.232C95.052 154.302 94.6189 154.354 93.8826 154.735C93.5232 154.943 93.0294 155.263 92.5877 155.943C92.3711 156.281 92.1892 156.705 92.1026 157.16C92.016 157.615 92.0246 158.087 92.1069 158.481C92.2758 159.291 92.6266 159.78 92.8951 160.105C93.1767 160.43 93.4149 160.621 93.6271 160.776C94.0516 161.075 94.3937 161.236 94.7488 161.391C95.0996 161.543 95.4591 161.669 95.8489 161.794C96.6242 162.033 97.5293 162.253 98.5948 162.448C100.717 162.842 103.463 163.15 106.759 163.241C113.351 163.423 122.134 162.721 132.147 159.923C142.156 157.121 153.386 152.219 164.794 144.016C168.801 141.131 175.349 136.436 180.793 130.823C183.517 128.008 185.982 124.959 187.71 121.654C188.567 120 189.243 118.276 189.637 116.479C190.027 114.682 190.126 112.806 189.819 110.931C189.468 108.765 188.766 106.834 187.744 105.192C186.731 103.547 185.397 102.208 183.907 101.195C180.901 99.1635 177.376 98.3882 173.846 98.1933C170.303 98.0114 166.691 98.4273 163.356 99.0726C160.022 99.718 156.968 100.601 154.586 101.403C155.595 103.118 156.604 104.829 157.614 106.544C165.141 99.601 169.584 92.2122 171.243 84.9577C172.915 77.7163 171.72 70.6699 168.302 64.7754C164.89 58.8722 159.329 54.1123 152.364 51.0199C145.396 47.9276 136.998 46.4854 127.781 47.213C127.552 47.2303 127.309 47.2606 126.985 47.3039C126.664 47.3429 126.279 47.3991 125.828 47.4684C124.927 47.607 123.784 47.7976 122.485 48.0358C119.886 48.5166 116.672 49.1879 113.58 50.0368C110.475 50.89 107.53 51.8731 105.265 53.1681C104.13 53.8394 103.112 54.5585 102.328 55.7712C101.947 56.3818 101.652 57.1656 101.639 58.0318C101.622 58.8937 101.904 59.747 102.324 60.4097C102.397 60.5223 102.467 60.6391 102.653 60.8557C102.757 60.9639 102.878 61.1027 103.16 61.3019C103.303 61.3972 103.493 61.514 103.783 61.6136C104.069 61.7132 104.476 61.8043 104.974 61.7437C105.468 61.696 106.005 61.4534 106.36 61.1416C106.728 60.8341 106.928 60.5048 107.049 60.2536C107.278 59.7382 107.283 59.4611 107.304 59.2575C107.322 58.8678 107.283 58.7206 107.265 58.569C107.214 58.3005 107.166 58.1272 107.101 57.9193C107.04 57.7201 106.967 57.5078 106.88 57.2739C106.538 56.3341 105.962 54.9958 105.13 53.3847C103.467 50.1711 100.808 45.8964 97.0313 42.1285C93.2633 38.3778 88.3086 35.0861 82.1542 34.2199C79.0896 33.7868 75.7578 33.973 72.2453 34.9605C68.7298 35.9437 65.0359 37.7194 61.1644 40.4263C60.0912 41.1929 59.2237 42.215 58.3194 43.4667C57.4276 44.7227 56.5471 46.2083 55.7052 47.8497C54.0252 51.1283 52.5054 55.0174 51.6054 58.7551C51.1576 60.6261 50.8635 62.4582 50.8059 64.1906C50.7544 65.923 50.9194 67.5731 51.5374 69.0846C51.8484 69.8382 52.2854 70.5571 52.877 71.1721C53.466 71.7871 54.2105 72.2852 55.0399 72.597C56.7178 73.2293 58.5992 73.1557 60.678 72.597C62.0787 72.2202 63.2996 71.5706 64.2095 70.6178C65.1247 69.665 65.6518 68.448 65.8276 67.2484C66.0091 66.0357 65.8895 64.8273 65.6085 63.6319C65.3243 62.4322 64.8709 61.2282 64.3053 60.0241C62.0341 55.2384 57.9616 50.275 54.6289 46.9791C53.7956 46.1605 53.0074 45.4503 52.2854 44.8656C51.5561 44.2809 50.9216 43.8262 50.2433 43.4927C45.61 41.2579 41.5765 40.2617 38.0342 40.3916C34.4975 40.5042 31.4835 41.8339 29.2262 43.982C26.9572 46.1259 25.4041 49.0061 24.346 52.289C23.2901 55.5806 22.7262 59.3009 22.5205 63.2335C22.1134 71.0986 23.1476 79.8299 24.8489 87.5261C26.5566 95.2266 28.9157 101.866 31.2653 105.565C31.6685 106.201 32.8066 105.508 32.429 104.859Z" fill="currentColor"/></svg>
